#N canvas 396 156 570 465 12;
#X obj 38 18 inlet;
#X obj 37 47 % 16;
#X obj 49 180 *;
#X floatatom 103 165 5 0 16 3 Num\ of\ Notes - - 0;
#X obj 50 206 % 16;
#X obj 50 234 <;
#X obj 50 265 sel 1;
#X obj 163 166 bng 15 250 50 0 empty empty empty 17 7 0 10 #fcfcfc
#000000 #000000;
#X obj 49 335 f;
#X obj 35 84 t f f;
#X floatatom 49 366 5 0 0 0 - - - 0;
#X obj 54 426 outlet;
#X obj 42 133 + 0;
#X floatatom 103 128 5 0 16 3 Rotation - - 0;
#X connect 0 0 1 0;
#X connect 1 0 9 0;
#X connect 2 0 4 0;
#X connect 3 0 2 1;
#X connect 3 0 5 1;
#X connect 4 0 5 0;
#X connect 5 0 6 0;
#X connect 6 0 7 0;
#X connect 7 0 8 0;
#X connect 8 0 10 0;
#X connect 9 0 12 0;
#X connect 9 1 8 1;
#X connect 10 0 11 0;
#X connect 12 0 2 0;
#X connect 13 0 12 1;
#X coords 0 -1 1 1 85 100 1 100 100;
