#N canvas 208 233 450 300 12;
#X obj 79 21 inlet;
#X obj 78 50 % 16;
#X obj 90 183 *;
#X floatatom 236 266 5 0 16 3 Num\ of\ Notes - - 0;
#X obj 91 209 % 16;
#X obj 91 237 <;
#X obj 91 268 sel 1;
#X obj 285 133 bng 15 250 50 0 empty empty empty 17 7 0 10 #fcfcfc
#000000 #000000;
#X obj 90 338 f;
#X obj 76 87 t f f;
#X floatatom 90 369 5 0 0 0 - - - 0;
#X obj 166 451 outlet;
#X obj 95 429 outlet;
#X obj 83 136 + 0;
#X floatatom 236 223 5 0 16 3 Rotation - - 0;
#X obj 206 143 vradio 15 1 0 12 empty empty Note 0 -8 0 10 #fcfcfc
#000000 #000000 0;
#N canvas 47 193 894 442 noteselect 0;
#X obj 81 70 inlet;
#X obj 168 66 inlet;
#X msg 55 210 61;
#X msg 119 217 62;
#X obj 91 161 tgl 15 0 empty empty empty 17 7 0 10 #fcfcfc #000000
#000000 0 1;
#X obj 79 138 == 0;
#X obj 54 182 spigot;
#X obj 154 164 tgl 15 0 empty empty empty 17 7 0 10 #fcfcfc #000000
#000000 0 1;
#X obj 117 185 spigot;
#X obj 142 141 == 1;
#X msg 188 210 63;
#X msg 247 217 64;
#X msg 308 226 65;
#X msg 372 218 66;
#X msg 434 232 67;
#X msg 483 229 68;
#X msg 544 242 69;
#X msg 620 237 70;
#X msg 689 237 71;
#X msg 759 241 72;
#X obj 225 163 tgl 15 0 empty empty empty 17 7 0 10 #fcfcfc #000000
#000000 0 1;
#X obj 188 184 spigot;
#X obj 285 168 tgl 15 0 empty empty empty 17 7 0 10 #fcfcfc #000000
#000000 0 1;
#X obj 248 189 spigot;
#X obj 468 176 tgl 15 0 empty empty empty 17 7 0 10 #fcfcfc #000000
#000000 0 1;
#X obj 431 197 spigot;
#X obj 714 188 tgl 15 0 empty empty empty 17 7 0 10 #fcfcfc #000000
#000000 0 1;
#X obj 677 209 spigot;
#X obj 644 186 tgl 15 0 empty empty empty 17 7 0 10 #fcfcfc #000000
#000000 0 1;
#X obj 607 207 spigot;
#X obj 409 161 tgl 15 0 empty empty empty 17 7 0 10 #fcfcfc #000000
#000000 0 1;
#X obj 372 182 spigot;
#X obj 347 174 tgl 15 0 empty empty empty 17 7 0 10 #fcfcfc #000000
#000000 0 1;
#X obj 310 195 spigot;
#X obj 520 175 tgl 15 0 empty empty empty 17 7 0 10 #fcfcfc #000000
#000000 0 1;
#X obj 483 196 spigot;
#X obj 802 191 tgl 15 0 empty empty empty 17 7 0 10 #fcfcfc #000000
#000000 0 1;
#X obj 765 212 spigot;
#X obj 579 179 tgl 15 0 empty empty empty 17 7 0 10 #fcfcfc #000000
#000000 0 1;
#X obj 542 200 spigot;
#X obj 213 140 == 2;
#X obj 273 145 == 3;
#X obj 335 151 == 4;
#X obj 397 138 == 5;
#X obj 456 153 == 6;
#X obj 508 152 == 7;
#X obj 567 156 == 8;
#X obj 632 163 == 9;
#X obj 702 165 == 10;
#X obj 790 168 == 11;
#X obj 187 412 outlet;
#X obj 334 266 inlet;
#X obj 133 287 == 0;
#X obj 184 282 == 1;
#X obj 241 296 == 2;
#X obj 303 299 == 3;
#X obj 135 317 tgl 15 0 empty empty empty 17 7 0 10 #fcfcfc #000000
#000000 0 1;
#X obj 182 314 tgl 15 0 empty empty empty 17 7 0 10 #fcfcfc #000000
#000000 0 1;
#X obj 239 328 tgl 15 0 empty empty empty 17 7 0 10 #fcfcfc #000000
#000000 0 1;
#X obj 314 332 tgl 15 0 empty empty empty 17 7 0 10 #fcfcfc #000000
#000000 0 1;
#X obj 100 341 spigot;
#X obj 93 399 + 12;
#X obj 163 344 spigot;
#X obj 224 352 spigot;
#X obj 224 376 - 12;
#X obj 421 371 spigot;
#X obj 316 395 - 24;
#X connect 0 0 5 0;
#X connect 0 0 9 0;
#X connect 0 0 40 0;
#X connect 0 0 41 0;
#X connect 0 0 42 0;
#X connect 0 0 43 0;
#X connect 0 0 44 0;
#X connect 0 0 45 0;
#X connect 0 0 46 0;
#X connect 0 0 47 0;
#X connect 0 0 48 0;
#X connect 0 0 49 0;
#X connect 1 0 6 0;
#X connect 1 0 8 0;
#X connect 1 0 21 0;
#X connect 1 0 23 0;
#X connect 1 0 33 0;
#X connect 1 0 31 0;
#X connect 1 0 25 0;
#X connect 1 0 35 0;
#X connect 1 0 39 0;
#X connect 1 0 29 0;
#X connect 1 0 27 0;
#X connect 1 0 37 0;
#X connect 2 0 60 0;
#X connect 2 0 62 0;
#X connect 2 0 63 0;
#X connect 2 0 65 0;
#X connect 3 0 60 0;
#X connect 3 0 62 0;
#X connect 3 0 63 0;
#X connect 3 0 65 0;
#X connect 4 0 6 1;
#X connect 5 0 4 0;
#X connect 6 0 2 0;
#X connect 7 0 8 1;
#X connect 8 0 3 0;
#X connect 9 0 7 0;
#X connect 10 0 60 0;
#X connect 10 0 62 0;
#X connect 10 0 63 0;
#X connect 10 0 65 0;
#X connect 11 0 60 0;
#X connect 11 0 62 0;
#X connect 11 0 63 0;
#X connect 11 0 65 0;
#X connect 12 0 60 0;
#X connect 12 0 62 0;
#X connect 12 0 63 0;
#X connect 12 0 65 0;
#X connect 13 0 60 0;
#X connect 13 0 62 0;
#X connect 13 0 63 0;
#X connect 13 0 65 0;
#X connect 14 0 60 0;
#X connect 14 0 62 0;
#X connect 14 0 63 0;
#X connect 14 0 65 0;
#X connect 15 0 60 0;
#X connect 15 0 62 0;
#X connect 15 0 63 0;
#X connect 15 0 65 0;
#X connect 16 0 60 0;
#X connect 16 0 62 0;
#X connect 16 0 63 0;
#X connect 16 0 65 0;
#X connect 17 0 60 0;
#X connect 17 0 62 0;
#X connect 17 0 63 0;
#X connect 17 0 65 0;
#X connect 18 0 60 0;
#X connect 18 0 62 0;
#X connect 18 0 63 0;
#X connect 18 0 65 0;
#X connect 19 0 60 0;
#X connect 19 0 62 0;
#X connect 19 0 63 0;
#X connect 19 0 65 0;
#X connect 20 0 21 1;
#X connect 21 0 10 0;
#X connect 22 0 23 1;
#X connect 23 0 11 0;
#X connect 24 0 25 1;
#X connect 25 0 14 0;
#X connect 26 0 27 1;
#X connect 27 0 18 0;
#X connect 28 0 29 1;
#X connect 29 0 17 0;
#X connect 30 0 31 1;
#X connect 31 0 13 0;
#X connect 32 0 33 1;
#X connect 33 0 12 0;
#X connect 34 0 35 1;
#X connect 35 0 15 0;
#X connect 36 0 37 1;
#X connect 37 0 19 0;
#X connect 38 0 39 1;
#X connect 39 0 16 0;
#X connect 40 0 20 0;
#X connect 41 0 22 0;
#X connect 42 0 32 0;
#X connect 43 0 30 0;
#X connect 44 0 24 0;
#X connect 45 0 34 0;
#X connect 46 0 38 0;
#X connect 47 0 28 0;
#X connect 48 0 26 0;
#X connect 49 0 36 0;
#X connect 51 0 52 0;
#X connect 51 0 53 0;
#X connect 51 0 54 0;
#X connect 51 0 55 0;
#X connect 52 0 56 0;
#X connect 53 0 57 0;
#X connect 54 0 58 0;
#X connect 55 0 59 0;
#X connect 56 0 60 1;
#X connect 57 0 62 1;
#X connect 58 0 63 1;
#X connect 59 0 65 1;
#X connect 60 0 61 0;
#X connect 61 0 50 0;
#X connect 62 0 50 0;
#X connect 63 0 64 0;
#X connect 64 0 50 0;
#X connect 65 0 66 0;
#X connect 66 0 50 0;
#X restore 391 242 pd noteselect;
#X obj 235 144 vradio 15 1 0 4 empty empty Octave 0 -8 0 10 #fcfcfc
#000000 #000000 0;
#X obj 398 336 moses;
#X connect 0 0 1 0;
#X connect 1 0 9 0;
#X connect 2 0 4 0;
#X connect 3 0 2 1;
#X connect 3 0 5 1;
#X connect 4 0 5 0;
#X connect 5 0 6 0;
#X connect 6 0 7 0;
#X connect 7 0 8 0;
#X connect 7 0 16 1;
#X connect 8 0 10 0;
#X connect 9 0 13 0;
#X connect 9 1 8 1;
#X connect 10 0 12 0;
#X connect 13 0 2 0;
#X connect 14 0 13 1;
#X connect 15 0 16 0;
#X connect 16 0 11 0;
#X connect 17 0 16 2;
#X coords 0 -1 1 1 120 230 1 200 100;
