#N canvas 603 186 1026 523 12;
#X obj 83 35 tgl 15 0 empty empty Start/Stop 17 7 0 10 #fcfcfc #000000
#202020 0 1;
#X floatatom 84 57 5 50 200 1 BPM - - 0;
#X floatatom 83 153 5 0 0 0 - - - 0;
#X obj 83 85 expr 60/$f1*1000;
#X obj 83 109 / 4;
#X obj 112 214 metro 200;
#X obj 109 257 f;
#X obj 143 257 + 1;
#X obj 59 196 == 0;
#X obj 232 5 loadbang;
#X msg 218 26 120;
#N canvas 769 213 450 475 seq1 0;
#X obj 79 21 inlet;
#X obj 78 50 % 16;
#X obj 83 136 + 0;
#X obj 90 183 *;
#X floatatom 204 138 5 0 16 1 Notes - - 0;
#X obj 91 209 % 16;
#X obj 91 237 <;
#X obj 91 268 sel 1;
#X obj 205 116 bng 15 250 50 0 empty empty empty 17 7 0 10 #fcfcfc
#000000 #000000;
#X obj 90 338 f;
#X obj 76 87 t f f;
#X floatatom 90 369 5 0 0 0 - - - 0;
#X obj 171 417 outlet;
#X obj 236 426 outlet;
#X msg 231 108 37;
#X connect 0 0 1 0;
#X connect 1 0 10 0;
#X connect 2 0 3 0;
#X connect 3 0 5 0;
#X connect 4 0 3 1;
#X connect 4 0 6 1;
#X connect 5 0 6 0;
#X connect 6 0 7 0;
#X connect 7 0 8 0;
#X connect 8 0 9 0;
#X connect 9 0 11 0;
#X connect 10 0 2 0;
#X connect 10 1 9 1;
#X connect 11 0 14 0;
#X connect 11 0 13 0;
#X connect 14 0 12 0;
#X coords 0 -1 1 1 85 60 1 200 100;
#X restore 60 337 pd seq1;
#N canvas 883 278 509 531 seq2 0;
#X obj 79 21 inlet;
#X obj 78 50 % 16;
#X obj 83 136 + 0;
#X obj 90 183 *;
#X floatatom 204 138 5 0 16 1 Notes - - 0;
#X obj 91 209 % 16;
#X obj 91 237 <;
#X obj 91 268 sel 1;
#X obj 205 116 bng 15 250 50 0 empty empty empty 17 7 0 10 #fcfcfc
#000000 #000000;
#X obj 90 338 f;
#X obj 76 87 t f f;
#X floatatom 90 369 5 0 0 0 - - - 0;
#X obj 96 417 outlet;
#X obj 182 423 outlet;
#X msg 239 109 49;
#X connect 0 0 1 0;
#X connect 1 0 10 0;
#X connect 2 0 3 0;
#X connect 3 0 5 0;
#X connect 4 0 3 1;
#X connect 4 0 6 1;
#X connect 5 0 6 0;
#X connect 6 0 7 0;
#X connect 7 0 8 0;
#X connect 8 0 9 0;
#X connect 9 0 11 0;
#X connect 10 0 2 0;
#X connect 10 1 9 1;
#X connect 11 0 13 0;
#X connect 11 0 14 0;
#X connect 14 0 12 0;
#X coords 0 -1 1 1 85 60 1 200 100;
#X restore 156 340 pd seq2;
#X obj 410 154 midiout;
#X obj 301 57 select 0 1;
#X msg 301 91 252;
#X msg 338 91 250;
#N canvas 597 59 704 653 synth 1;
#X obj 82 66 mtof;
#X obj 138 563 *~;
#X obj 142 602 dac~;
#X obj 236 528 hsl 128 15 0 1 0 0 empty empty empty -2 -8 0 10 #fcfcfc
#000000 #000000 0 1;
#X obj 189 91 phasor~;
#X obj 189 203 expr~ $v1 * 2 - 1;
#X obj 193 161 expr~ $v1 > 0.5;
#X obj 208 484 *~;
#X obj 76 121 phasor~;
#X obj 50 217 *~;
#X obj 113 251 hsl 128 15 0.01 1 1 0 empty empty empty -2 -8 0 10 #fcfcfc
#000000 #000000 0 1;
#X obj 280 239 *~;
#X obj 298 293 hsl 128 15 0.01 1 1 0 empty empty empty -2 -8 0 10 #fcfcfc
#000000 #000000 0 1;
#X obj 48 175 expr~ $v1 * 2 - 1;
#X obj 123 20 inlet;
#X obj 465 53 inlet;
#X obj 244 23 notein;
#X obj 244 68 t f b;
#X obj 296 51 stripnote;
#N canvas 688 285 450 383 env 0;
#X obj 99 269 vline~;
#X obj 105 115 hsl 128 15 0 1500 0 0 empty empty DECAY -2 -8 0 10 #fcfcfc
#000000 #000000 0 1;
#X obj 74 22 inlet;
#X obj 97 347 outlet~;
#X obj 119 231 pack 0 500;
#X obj 99 295 *~;
#X obj 99 319 *~;
#X floatatom 102 133 5 0 0 0 - - - 0;
#X msg 37 127 1 1;
#X obj 83 180 del 50;
#X connect 0 0 5 0;
#X connect 0 0 5 1;
#X connect 1 0 4 1;
#X connect 1 0 7 0;
#X connect 2 0 8 0;
#X connect 2 0 9 0;
#X connect 4 0 0 0;
#X connect 5 0 6 0;
#X connect 5 0 6 1;
#X connect 6 0 3 0;
#X connect 8 0 0 0;
#X connect 9 0 4 0;
#X coords 0 -1 1 1 180 70 2 100 100;
#X restore 458 297 pd env;
#N canvas 951 121 450 300 filter 0;
#X obj 46 31 inlet~;
#X obj 113 31 inlet~;
#X obj 177 29 inlet;
#X obj 68 159 sig~;
#X obj 29 212 vcf~ 1000 1;
#X obj 109 105 hsl 128 15 50 6000 1 0 empty empty CUTOFF -2 -8 0 10
#fcfcfc #000000 #000000 0 1;
#X obj 110 141 hsl 128 15 1 50 1 0 empty empty PEAK -2 -8 0 10 #fcfcfc
#000000 #000000 0 1;
#X obj 74 241 outlet~;
#X connect 0 0 4 0;
#X connect 1 0 4 1;
#X connect 3 0 4 1;
#X connect 4 1 7 0;
#X connect 5 0 3 0;
#X connect 6 0 4 2;
#X coords 0 -1 1 1 160 60 2 100 100;
#X restore 50 374 pd filter;
#X obj 526 391 hsl 128 15 0 5000 0 0 empty empty FILT\ ENV -2 -8 0
10 #fcfcfc #000000 #000000 0 1;
#X obj 457 405 *~;
#X connect 0 0 4 0;
#X connect 0 0 8 0;
#X connect 1 0 2 0;
#X connect 1 0 2 1;
#X connect 3 0 1 1;
#X connect 4 0 6 0;
#X connect 5 0 11 0;
#X connect 6 0 5 0;
#X connect 7 0 1 0;
#X connect 8 0 13 0;
#X connect 9 0 20 0;
#X connect 10 0 9 1;
#X connect 11 0 20 0;
#X connect 12 0 11 1;
#X connect 13 0 9 0;
#X connect 14 0 0 0;
#X connect 15 0 19 0;
#X connect 16 0 17 0;
#X connect 16 0 18 0;
#X connect 16 1 18 1;
#X connect 17 0 0 0;
#X connect 18 1 19 0;
#X connect 19 0 7 1;
#X connect 19 0 22 0;
#X connect 20 0 7 0;
#X connect 21 0 22 1;
#X connect 22 0 20 1;
#X restore 227 472 pd synth;
#N canvas 883 278 509 531 seq3 0;
#X obj 79 21 inlet;
#X obj 78 50 % 16;
#X obj 83 136 + 0;
#X obj 90 183 *;
#X floatatom 204 138 5 0 16 1 Notes - - 0;
#X obj 91 209 % 16;
#X obj 91 237 <;
#X obj 91 268 sel 1;
#X obj 205 116 bng 15 250 50 0 empty empty empty 17 7 0 10 #fcfcfc
#000000 #000000;
#X obj 90 338 f;
#X obj 76 87 t f f;
#X floatatom 90 369 5 0 0 0 - - - 0;
#X obj 96 417 outlet;
#X obj 182 423 outlet;
#X msg 239 109 39;
#X connect 0 0 1 0;
#X connect 1 0 10 0;
#X connect 2 0 3 0;
#X connect 3 0 5 0;
#X connect 4 0 3 1;
#X connect 4 0 6 1;
#X connect 5 0 6 0;
#X connect 6 0 7 0;
#X connect 7 0 8 0;
#X connect 8 0 9 0;
#X connect 9 0 11 0;
#X connect 10 0 2 0;
#X connect 10 1 9 1;
#X connect 11 0 13 0;
#X connect 11 0 14 0;
#X connect 14 0 12 0;
#X coords 0 -1 1 1 85 60 1 200 100;
#X restore 257 341 pd seq3;
#N canvas 883 278 509 531 seq4 0;
#X obj 79 21 inlet;
#X obj 78 50 % 16;
#X obj 83 136 + 0;
#X obj 90 183 *;
#X floatatom 204 138 5 0 16 1 Notes - - 0;
#X obj 91 209 % 16;
#X obj 91 237 <;
#X obj 91 268 sel 1;
#X obj 205 116 bng 15 250 50 0 empty empty empty 17 7 0 10 #fcfcfc
#000000 #000000;
#X obj 90 338 f;
#X obj 76 87 t f f;
#X floatatom 90 369 5 0 0 0 - - - 0;
#X obj 96 417 outlet;
#X obj 182 423 outlet;
#X msg 239 109 63;
#X connect 0 0 1 0;
#X connect 1 0 10 0;
#X connect 2 0 3 0;
#X connect 3 0 5 0;
#X connect 4 0 3 1;
#X connect 4 0 6 1;
#X connect 5 0 6 0;
#X connect 6 0 7 0;
#X connect 7 0 8 0;
#X connect 8 0 9 0;
#X connect 9 0 11 0;
#X connect 10 0 2 0;
#X connect 10 1 9 1;
#X connect 11 0 13 0;
#X connect 11 0 14 0;
#X connect 14 0 12 0;
#X coords 0 -1 1 1 85 60 1 200 100;
#X restore 365 342 pd seq4;
#X connect 0 0 5 0;
#X connect 0 0 8 0;
#X connect 0 0 14 0;
#X connect 1 0 3 0;
#X connect 2 0 5 0;
#X connect 2 0 13 0;
#X connect 3 0 4 0;
#X connect 4 0 2 0;
#X connect 5 0 6 0;
#X connect 6 0 7 0;
#X connect 6 0 11 0;
#X connect 6 0 12 0;
#X connect 6 0 18 0;
#X connect 6 0 19 0;
#X connect 7 0 6 1;
#X connect 8 0 6 1;
#X connect 9 0 10 0;
#X connect 10 0 1 0;
#X connect 11 0 17 0;
#X connect 11 1 17 1;
#X connect 12 0 17 0;
#X connect 12 1 17 1;
#X connect 14 0 15 0;
#X connect 14 1 16 0;
#X connect 15 0 13 0;
#X connect 16 0 13 0;
#X connect 18 0 17 0;
#X connect 18 1 17 1;
#X connect 19 0 17 0;
#X connect 19 1 17 1;
